<?xml version="1.0" encoding="UTF-8" standalone="no"?>
<!-- Created with Inkscape (http://www.inkscape.org/) -->

<svg
   xmlns:dc="http://purl.org/dc/elements/1.1/"
   xmlns:cc="http://creativecommons.org/ns#"
   xmlns:rdf="http://www.w3.org/1999/02/22-rdf-syntax-ns#"
   xmlns:svg="http://www.w3.org/2000/svg"
   xmlns="http://www.w3.org/2000/svg"
   xmlns:sodipodi="http://sodipodi.sourceforge.net/DTD/sodipodi-0.dtd"
   xmlns:inkscape="http://www.inkscape.org/namespaces/inkscape"
   width="336.84033"
   height="149.55811"
   id="svg2"
   version="1.1"
   inkscape:version="0.48.4 r9939"
   sodipodi:docname="logo.svg">
  <defs
     id="defs4" />
  <sodipodi:namedview
     id="base"
     pagecolor="#ffffff"
     bordercolor="#666666"
     borderopacity="1.0"
     inkscape:pageopacity="0.0"
     inkscape:pageshadow="2"
     inkscape:zoom="1.979899"
     inkscape:cx="292.95581"
     inkscape:cy="26.134505"
     inkscape:document-units="px"
     inkscape:current-layer="g3785"
     showgrid="false"
     fit-margin-top="0"
     fit-margin-left="0"
     fit-margin-right="0"
     fit-margin-bottom="0"
     inkscape:window-width="1918"
     inkscape:window-height="1059"
     inkscape:window-x="1366"
     inkscape:window-y="19"
     inkscape:window-maximized="0" />
  <metadata
     id="metadata7">
    <rdf:RDF>
      <cc:Work
         rdf:about="">
        <dc:format>image/svg+xml</dc:format>
        <dc:type
           rdf:resource="http://purl.org/dc/dcmitype/StillImage" />
        <dc:title></dc:title>
      </cc:Work>
    </rdf:RDF>
  </metadata>
  <g
     inkscape:label="Layer 1"
     inkscape:groupmode="layer"
     id="layer1"
     transform="translate(-144.2018,-270.74622)">
    <path
       transform="matrix(0.70265854,0.26317785,-0.26317785,0.70265854,172.34518,61.082294)"
       inkscape:transform-center-y="-2.3417115"
       inkscape:transform-center-x="0.59453337"
       d="m 235.71428,422.36219 -68.80422,-2.46336 -46.91007,-50.39378 2.46336,-68.80422 50.39379,-46.91007 68.80421,2.46336 46.91007,50.39379 -2.46336,68.80421 z"
       inkscape:randomized="0"
       inkscape:rounded="0"
       inkscape:flatsided="true"
       sodipodi:arg2="1.6065835"
       sodipodi:arg1="1.2138844"
       sodipodi:r2="81.046326"
       sodipodi:r1="89.954636"
       sodipodi:cy="338.07648"
       sodipodi:cx="204.28571"
       sodipodi:sides="8"
       id="path3757"
       style="fill:#e0e0e0;fill-opacity:1;stroke:#e0e0e0;stroke-width:1;stroke-miterlimit:6;stroke-opacity:1;stroke-dasharray:none"
       sodipodi:type="star" />
    <path
       sodipodi:type="star"
       style="fill:none;stroke:#ff68e5;stroke-width:6;stroke-linecap:round;stroke-linejoin:miter;stroke-miterlimit:4;stroke-opacity:1;stroke-dasharray:none;stroke-dashoffset:0"
       id="path2985"
       sodipodi:sides="8"
       sodipodi:cx="204.28571"
       sodipodi:cy="338.07648"
       sodipodi:r1="89.954636"
       sodipodi:r2="81.046326"
       sodipodi:arg1="1.2138844"
       sodipodi:arg2="1.6065835"
       inkscape:flatsided="true"
       inkscape:rounded="0"
       inkscape:randomized="0"
       d="m 235.71428,422.36219 -68.80422,-2.46336 -46.91007,-50.39378 2.46336,-68.80422 50.39379,-46.91007 68.80421,2.46336 46.91007,50.39379 -2.46336,68.80421 z"
       inkscape:transform-center-x="0.59453619"
       inkscape:transform-center-y="-2.3417124"
       transform="matrix(0.70265854,0.26317785,-0.26317785,0.70265854,159.553,49.362016)" />
    <g
       id="g3785"
       transform="translate(4,2)">
      <g
         transform="translate(3.5714237,-195)"
         style="font-size:40px;font-style:normal;font-weight:normal;line-height:125%;letter-spacing:0px;word-spacing:0px;opacity:0.19742491;fill:#000000;fill-opacity:1;stroke:#000000;stroke-opacity:1;font-family:Sans"
         id="flowRoot3759">
        <path
           d="m 209.76758,545.27761 -3.36914,17.22656 -10.54688,0 8.81836,-45.29297 10.54688,0 -0.9668,4.80469 c 1.60154,-1.91404 3.28123,-3.32028 5.03906,-4.21875 1.75779,-0.91794 3.68162,-1.37692 5.77149,-1.37696 3.69137,4e-5 6.61129,1.17191 8.75976,3.51563 2.1484,2.34378 3.22262,5.53713 3.22266,9.58008 -4e-5,2.51955 -0.3809,4.97072 -1.14258,7.35351 -0.74223,2.38283 -1.81644,4.55079 -3.22266,6.50391 -1.77737,2.46094 -3.78909,4.32617 -6.03515,5.5957 -2.22659,1.26953 -4.61917,1.9043 -7.17774,1.9043 -2.24611,0 -4.16017,-0.44922 -5.74218,-1.34766 -1.56252,-0.91796 -2.88088,-2.33398 -3.95508,-4.24804 m 11.01562,-21.24024 c -2.69533,3e-5 -4.90236,1.25003 -6.62109,3.75 -1.69924,2.48049 -2.54884,5.71291 -2.54883,9.69727 -1e-5,1.79688 0.4785,3.2129 1.43555,4.24804 0.97654,1.01564 2.3242,1.52345 4.04297,1.52344 2.63669,10e-6 4.81442,-1.22069 6.5332,-3.66211 1.71872,-2.46092 2.5781,-5.60545 2.57812,-9.43359 -2e-5,-1.99217 -0.46877,-3.50584 -1.40625,-4.54102 -0.91799,-1.05466 -2.25588,-1.582 -4.01367,-1.58203"
           style="font-size:60px;font-style:italic;font-weight:bold;fill:#000000;stroke:#000000;-inkscape-font-specification:Sans Bold Italic"
           id="path3865" />
        <path
           d="m 261.94531,523.92018 c -2.71486,3e-5 -4.95119,1.2305 -6.70898,3.69141 -1.75783,2.46096 -2.63673,5.59572 -2.63672,9.4043 -1e-5,2.07032 0.46874,3.65235 1.40625,4.74609 0.95702,1.07423 2.34373,1.61134 4.16016,1.61133 2.71482,1e-5 4.95114,-1.23046 6.70898,-3.69141 1.75779,-2.48045 2.63669,-5.63475 2.63672,-9.46289 -3e-5,-2.05076 -0.47854,-3.61326 -1.43555,-4.6875 -0.93752,-1.07419 -2.31448,-1.6113 -4.13086,-1.61133 m 0.84961,-7.5 c 4.88279,4e-5 8.72067,1.24027 11.51367,3.72071 2.79293,2.48049 4.18942,5.8594 4.18946,10.13672 -4e-5,2.48048 -0.43949,4.89259 -1.31836,7.23632 -0.87895,2.32423 -2.15824,4.45314 -3.83789,6.38672 -1.99222,2.30469 -4.34574,4.04297 -7.06055,5.21485 -2.71487,1.17187 -5.74221,1.75781 -9.08203,1.75781 -4.82423,0 -8.63282,-1.24023 -11.42578,-3.7207 -2.77344,-2.48047 -4.16016,-5.85937 -4.16016,-10.13672 0,-2.46092 0.44922,-4.86327 1.34766,-7.20703 0.89843,-2.36326 2.18749,-4.52146 3.86718,-6.47461 1.95312,-2.2656 4.27734,-3.98435 6.97266,-5.15625 2.71483,-1.17185 5.71287,-1.75778 8.99414,-1.75782"
           style="font-size:60px;font-style:italic;font-weight:bold;fill:#000000;stroke:#000000;-inkscape-font-specification:Sans Bold Italic"
           id="path3867" />
        <path
           d="m 311.54492,526.14675 c -0.72268,-0.41014 -1.52346,-0.72264 -2.40234,-0.9375 -0.87894,-0.21482 -1.8262,-0.32224 -2.8418,-0.32227 -2.6758,3e-5 -4.90236,0.8594 -6.67969,2.57813 -1.75783,1.71877 -2.94923,4.19923 -3.57422,7.4414 l -2.98828,15.11719 -10.51757,0 6.38671,-32.8125 10.54688,0 -1.14258,5.625 c 1.3867,-2.07028 3.11521,-3.65231 5.18555,-4.74609 2.08982,-1.11325 4.40427,-1.66989 6.94336,-1.66993 0.37106,4e-5 0.79098,0.0196 1.25976,0.0586 0.46872,0.0391 1.02536,0.0977 1.66992,0.17578 l -1.8457,9.49219"
           style="font-size:60px;font-style:italic;font-weight:bold;fill:#000000;stroke:#000000;-inkscape-font-specification:Sans Bold Italic"
           id="path3869" />
        <path
           d="m 314.29883,517.2112 9.90234,0 4.51172,22.73437 11.63086,-22.73437 11.2207,0 -20.77148,35.91797 c -2.32424,4.04296 -4.47267,6.68944 -6.44531,7.93945 -1.97267,1.26952 -4.5215,1.90429 -7.64649,1.9043 l -6.35742,0 1.08398,-6.88477 3.31055,0 c 1.71875,0 3.04687,-0.29297 3.98438,-0.8789 0.95702,-0.56641 1.80663,-1.57227 2.54882,-3.01758 l 0.9668,-1.75781 -7.93945,-33.22266"
           style="font-size:60px;font-style:italic;font-weight:bold;fill:#000000;stroke:#000000;-inkscape-font-specification:Sans Bold Italic"
           id="path3871" />
        <path
           d="m 374.5625,544.45729 c -1.67971,1.91407 -3.38869,3.32032 -5.12695,4.21875 -1.7383,0.89844 -3.63283,1.34766 -5.6836,1.34766 -3.71094,0 -6.6504,-1.19141 -8.81836,-3.57422 -2.14844,-2.40234 -3.22265,-5.67382 -3.22265,-9.81445 0,-2.20702 0.37109,-4.41405 1.11328,-6.6211 0.76171,-2.22654 1.8457,-4.31638 3.25195,-6.26953 1.71874,-2.36325 3.6914,-4.16012 5.91797,-5.39062 2.22655,-1.24997 4.61912,-1.87497 7.17773,-1.875 2.30467,3e-5 4.23826,0.44925 5.80079,1.34765 1.582,0.89847 2.91012,2.31449 3.98437,4.24805 l 0.87891,-4.86328 10.57617,0 -5.53711,28.50586 c -1.13285,5.8789 -3.55472,10.2246 -7.26563,13.03711 -3.71096,2.81249 -8.8672,4.21874 -15.46875,4.21875 -2.03126,-1e-5 -3.99414,-0.15626 -5.88867,-0.46875 -1.875,-0.31251 -3.73047,-0.79103 -5.5664,-1.43555 l 1.55273,-8.17383 c 1.66015,1.05469 3.32031,1.83594 4.98047,2.34375 1.66015,0.52734 3.35936,0.79101 5.09766,0.79102 3.47654,-10e-6 6.14256,-0.74219 7.99804,-2.22656 1.87498,-1.48438 3.13474,-3.84766 3.7793,-7.08985 l 0.46875,-2.25586 m -2.92969,-20.41992 c -2.57814,3e-5 -4.72658,1.16214 -6.44531,3.48633 -1.69923,2.32424 -2.54884,5.24416 -2.54883,8.75977 -10e-6,1.99219 0.45897,3.51563 1.37695,4.57031 0.91796,1.03516 2.25585,1.55274 4.01368,1.55273 2.55857,10e-6 4.69724,-1.15233 6.41601,-3.45703 1.71873,-2.3242 2.5781,-5.21483 2.57813,-8.67187 -3e-5,-2.03123 -0.45901,-3.5742 -1.37696,-4.62891 -0.91799,-1.07419 -2.25588,-1.6113 -4.01367,-1.61133"
           style="font-size:60px;font-style:italic;font-weight:bold;fill:#000000;stroke:#000000;-inkscape-font-specification:Sans Bold Italic"
           id="path3873" />
        <path
           d="m 414.99219,523.92018 c -2.71487,3e-5 -4.95119,1.2305 -6.70899,3.69141 -1.75782,2.46096 -2.63673,5.59572 -2.63672,9.4043 -10e-6,2.07032 0.46874,3.65235 1.40625,4.74609 0.95702,1.07423 2.34374,1.61134 4.16016,1.61133 2.71482,1e-5 4.95115,-1.23046 6.70898,-3.69141 1.75779,-2.48045 2.6367,-5.63475 2.63672,-9.46289 -2e-5,-2.05076 -0.47854,-3.61326 -1.43554,-4.6875 -0.93753,-1.07419 -2.31448,-1.6113 -4.13086,-1.61133 m 0.84961,-7.5 c 4.88278,4e-5 8.72067,1.24027 11.51367,3.72071 2.79293,2.48049 4.18941,5.8594 4.18945,10.13672 -4e-5,2.48048 -0.43949,4.89259 -1.31836,7.23632 -0.87894,2.32423 -2.15824,4.45314 -3.83789,6.38672 -1.99222,2.30469 -4.34573,4.04297 -7.06055,5.21485 -2.71486,1.17187 -5.7422,1.75781 -9.08203,1.75781 -4.82423,0 -8.63282,-1.24023 -11.42578,-3.7207 -2.77344,-2.48047 -4.16016,-5.85937 -4.16015,-10.13672 -1e-5,-2.46092 0.44921,-4.86327 1.34765,-7.20703 0.89844,-2.36326 2.1875,-4.52146 3.86719,-6.47461 1.95312,-2.2656 4.27733,-3.98435 6.97266,-5.15625 2.71482,-1.17185 5.71287,-1.75778 8.99414,-1.75782"
           style="font-size:60px;font-style:italic;font-weight:bold;fill:#000000;stroke:#000000;-inkscape-font-specification:Sans Bold Italic"
           id="path3875" />
        <path
           d="m 472.44336,530.04323 -3.89649,19.98047 -10.51757,0 3.31054,-17.10938 c 0.23435,-1.11326 0.41013,-2.05076 0.52735,-2.8125 0.13669,-0.78122 0.20505,-1.39646 0.20508,-1.8457 -3e-5,-1.24998 -0.35159,-2.21677 -1.05469,-2.90039 -0.68362,-0.68357 -1.66018,-1.02536 -2.92969,-1.02539 -2.16799,3e-5 -4.03322,0.84963 -5.5957,2.54883 -1.54299,1.67971 -2.61721,4.01369 -3.22266,7.00195 l -3.16406,16.14258 -10.51758,0 6.38672,-32.8125 10.54687,0 -0.96679,4.80469 c 1.93357,-1.8945 3.87693,-3.30075 5.83008,-4.21875 1.9531,-0.91794 3.99411,-1.37692 6.12304,-1.37696 3.02731,4e-5 5.3613,0.79105 7.00196,2.37305 1.64058,1.58206 2.46089,3.80862 2.46093,6.67969 -4e-5,0.62502 -0.0489,1.31838 -0.14648,2.08008 -0.0782,0.76174 -0.20512,1.59181 -0.38086,2.49023"
           style="font-size:60px;font-style:italic;font-weight:bold;fill:#000000;stroke:#000000;-inkscape-font-specification:Sans Bold Italic"
           id="path3877" />
      </g>
      <g
         transform="translate(1.5714237,-197)"
         style="font-size:40px;font-style:normal;font-weight:normal;line-height:125%;letter-spacing:0px;word-spacing:0px;fill:#82fff9;fill-opacity:1;stroke:#000000;stroke-opacity:1;font-family:Sans"
         id="flowRoot3767">
        <path
           d="m 209.76758,545.27761 -3.36914,17.22656 -10.54688,0 8.81836,-45.29297 10.54688,0 -0.9668,4.80469 c 1.60154,-1.91404 3.28123,-3.32028 5.03906,-4.21875 1.75779,-0.91794 3.68162,-1.37692 5.77149,-1.37696 3.69137,4e-5 6.61129,1.17191 8.75976,3.51563 2.1484,2.34378 3.22262,5.53713 3.22266,9.58008 -4e-5,2.51955 -0.3809,4.97072 -1.14258,7.35351 -0.74223,2.38283 -1.81644,4.55079 -3.22266,6.50391 -1.77737,2.46094 -3.78909,4.32617 -6.03515,5.5957 -2.22659,1.26953 -4.61917,1.9043 -7.17774,1.9043 -2.24611,0 -4.16017,-0.44922 -5.74218,-1.34766 -1.56252,-0.91796 -2.88088,-2.33398 -3.95508,-4.24804 m 11.01562,-21.24024 c -2.69533,3e-5 -4.90236,1.25003 -6.62109,3.75 -1.69924,2.48049 -2.54884,5.71291 -2.54883,9.69727 -1e-5,1.79688 0.4785,3.2129 1.43555,4.24804 0.97654,1.01564 2.3242,1.52345 4.04297,1.52344 2.63669,10e-6 4.81442,-1.22069 6.5332,-3.66211 1.71872,-2.46092 2.5781,-5.60545 2.57812,-9.43359 -2e-5,-1.99217 -0.46877,-3.50584 -1.40625,-4.54102 -0.91799,-1.05466 -2.25588,-1.582 -4.01367,-1.58203"
           style="font-size:60px;font-style:italic;font-variant:normal;font-weight:bold;font-stretch:normal;fill:#82fff9;stroke:#000000;font-family:Sans;-inkscape-font-specification:'micro.pcf Bold Italic'"
           id="path3850" />
        <path
           d="m 261.94531,523.92018 c -2.71486,3e-5 -4.95119,1.2305 -6.70898,3.69141 -1.75783,2.46096 -2.63673,5.59572 -2.63672,9.4043 -1e-5,2.07032 0.46874,3.65235 1.40625,4.74609 0.95702,1.07423 2.34373,1.61134 4.16016,1.61133 2.71482,1e-5 4.95114,-1.23046 6.70898,-3.69141 1.75779,-2.48045 2.63669,-5.63475 2.63672,-9.46289 -3e-5,-2.05076 -0.47854,-3.61326 -1.43555,-4.6875 -0.93752,-1.07419 -2.31448,-1.6113 -4.13086,-1.61133 m 0.84961,-7.5 c 4.88279,4e-5 8.72067,1.24027 11.51367,3.72071 2.79293,2.48049 4.18942,5.8594 4.18946,10.13672 -4e-5,2.48048 -0.43949,4.89259 -1.31836,7.23632 -0.87895,2.32423 -2.15824,4.45314 -3.83789,6.38672 -1.99222,2.30469 -4.34574,4.04297 -7.06055,5.21485 -2.71487,1.17187 -5.74221,1.75781 -9.08203,1.75781 -4.82423,0 -8.63282,-1.24023 -11.42578,-3.7207 -2.77344,-2.48047 -4.16016,-5.85937 -4.16016,-10.13672 0,-2.46092 0.44922,-4.86327 1.34766,-7.20703 0.89843,-2.36326 2.18749,-4.52146 3.86718,-6.47461 1.95312,-2.2656 4.27734,-3.98435 6.97266,-5.15625 2.71483,-1.17185 5.71287,-1.75778 8.99414,-1.75782"
           style="font-size:60px;font-style:italic;font-variant:normal;font-weight:bold;font-stretch:normal;fill:#82fff9;stroke:#000000;font-family:Sans;-inkscape-font-specification:'micro.pcf Bold Italic'"
           id="path3852" />
        <path
           d="m 311.54492,526.14675 c -0.72268,-0.41014 -1.52346,-0.72264 -2.40234,-0.9375 -0.87894,-0.21482 -1.8262,-0.32224 -2.8418,-0.32227 -2.6758,3e-5 -4.90236,0.8594 -6.67969,2.57813 -1.75783,1.71877 -2.94923,4.19923 -3.57422,7.4414 l -2.98828,15.11719 -10.51757,0 6.38671,-32.8125 10.54688,0 -1.14258,5.625 c 1.3867,-2.07028 3.11521,-3.65231 5.18555,-4.74609 2.08982,-1.11325 4.40427,-1.66989 6.94336,-1.66993 0.37106,4e-5 0.79098,0.0196 1.25976,0.0586 0.46872,0.0391 1.02536,0.0977 1.66992,0.17578 l -1.8457,9.49219"
           style="font-size:60px;font-style:italic;font-variant:normal;font-weight:bold;font-stretch:normal;fill:#82fff9;stroke:#000000;font-family:Sans;-inkscape-font-specification:'micro.pcf Bold Italic'"
           id="path3854" />
        <path
           d="m 314.29883,517.2112 9.90234,0 4.51172,22.73437 11.63086,-22.73437 11.2207,0 -20.77148,35.91797 c -2.32424,4.04296 -4.47267,6.68944 -6.44531,7.93945 -1.97267,1.26952 -4.5215,1.90429 -7.64649,1.9043 l -6.35742,0 1.08398,-6.88477 3.31055,0 c 1.71875,0 3.04687,-0.29297 3.98438,-0.8789 0.95702,-0.56641 1.80663,-1.57227 2.54882,-3.01758 l 0.9668,-1.75781 -7.93945,-33.22266"
           style="font-size:60px;font-style:italic;font-variant:normal;font-weight:bold;font-stretch:normal;fill:#82fff9;stroke:#000000;font-family:Sans;-inkscape-font-specification:'micro.pcf Bold Italic'"
           id="path3856" />
        <path
           d="m 374.5625,544.45729 c -1.67971,1.91407 -3.38869,3.32032 -5.12695,4.21875 -1.7383,0.89844 -3.63283,1.34766 -5.6836,1.34766 -3.71094,0 -6.6504,-1.19141 -8.81836,-3.57422 -2.14844,-2.40234 -3.22265,-5.67382 -3.22265,-9.81445 0,-2.20702 0.37109,-4.41405 1.11328,-6.6211 0.76171,-2.22654 1.8457,-4.31638 3.25195,-6.26953 1.71874,-2.36325 3.6914,-4.16012 5.91797,-5.39062 2.22655,-1.24997 4.61912,-1.87497 7.17773,-1.875 2.30467,3e-5 4.23826,0.44925 5.80079,1.34765 1.582,0.89847 2.91012,2.31449 3.98437,4.24805 l 0.87891,-4.86328 10.57617,0 -5.53711,28.50586 c -1.13285,5.8789 -3.55472,10.2246 -7.26563,13.03711 -3.71096,2.81249 -8.8672,4.21874 -15.46875,4.21875 -2.03126,-1e-5 -3.99414,-0.15626 -5.88867,-0.46875 -1.875,-0.31251 -3.73047,-0.79103 -5.5664,-1.43555 l 1.55273,-8.17383 c 1.66015,1.05469 3.32031,1.83594 4.98047,2.34375 1.66015,0.52734 3.35936,0.79101 5.09766,0.79102 3.47654,-10e-6 6.14256,-0.74219 7.99804,-2.22656 1.87498,-1.48438 3.13474,-3.84766 3.7793,-7.08985 l 0.46875,-2.25586 m -2.92969,-20.41992 c -2.57814,3e-5 -4.72658,1.16214 -6.44531,3.48633 -1.69923,2.32424 -2.54884,5.24416 -2.54883,8.75977 -10e-6,1.99219 0.45897,3.51563 1.37695,4.57031 0.91796,1.03516 2.25585,1.55274 4.01368,1.55273 2.55857,10e-6 4.69724,-1.15233 6.41601,-3.45703 1.71873,-2.3242 2.5781,-5.21483 2.57813,-8.67187 -3e-5,-2.03123 -0.45901,-3.5742 -1.37696,-4.62891 -0.91799,-1.07419 -2.25588,-1.6113 -4.01367,-1.61133"
           style="font-size:60px;font-style:italic;font-variant:normal;font-weight:bold;font-stretch:normal;fill:#82fff9;stroke:#000000;font-family:Sans;-inkscape-font-specification:'micro.pcf Bold Italic'"
           id="path3858" />
        <path
           d="m 414.99219,523.92018 c -2.71487,3e-5 -4.95119,1.2305 -6.70899,3.69141 -1.75782,2.46096 -2.63673,5.59572 -2.63672,9.4043 -10e-6,2.07032 0.46874,3.65235 1.40625,4.74609 0.95702,1.07423 2.34374,1.61134 4.16016,1.61133 2.71482,1e-5 4.95115,-1.23046 6.70898,-3.69141 1.75779,-2.48045 2.6367,-5.63475 2.63672,-9.46289 -2e-5,-2.05076 -0.47854,-3.61326 -1.43554,-4.6875 -0.93753,-1.07419 -2.31448,-1.6113 -4.13086,-1.61133 m 0.84961,-7.5 c 4.88278,4e-5 8.72067,1.24027 11.51367,3.72071 2.79293,2.48049 4.18941,5.8594 4.18945,10.13672 -4e-5,2.48048 -0.43949,4.89259 -1.31836,7.23632 -0.87894,2.32423 -2.15824,4.45314 -3.83789,6.38672 -1.99222,2.30469 -4.34573,4.04297 -7.06055,5.21485 -2.71486,1.17187 -5.7422,1.75781 -9.08203,1.75781 -4.82423,0 -8.63282,-1.24023 -11.42578,-3.7207 -2.77344,-2.48047 -4.16016,-5.85937 -4.16015,-10.13672 -1e-5,-2.46092 0.44921,-4.86327 1.34765,-7.20703 0.89844,-2.36326 2.1875,-4.52146 3.86719,-6.47461 1.95312,-2.2656 4.27733,-3.98435 6.97266,-5.15625 2.71482,-1.17185 5.71287,-1.75778 8.99414,-1.75782"
           style="font-size:60px;font-style:italic;font-variant:normal;font-weight:bold;font-stretch:normal;fill:#82fff9;stroke:#000000;font-family:Sans;-inkscape-font-specification:'micro.pcf Bold Italic'"
           id="path3860" />
        <path
           d="m 472.44336,530.04323 -3.89649,19.98047 -10.51757,0 3.31054,-17.10938 c 0.23435,-1.11326 0.41013,-2.05076 0.52735,-2.8125 0.13669,-0.78122 0.20505,-1.39646 0.20508,-1.8457 -3e-5,-1.24998 -0.35159,-2.21677 -1.05469,-2.90039 -0.68362,-0.68357 -1.66018,-1.02536 -2.92969,-1.02539 -2.16799,3e-5 -4.03322,0.84963 -5.5957,2.54883 -1.54299,1.67971 -2.61721,4.01369 -3.22266,7.00195 l -3.16406,16.14258 -10.51758,0 6.38672,-32.8125 10.54687,0 -0.96679,4.80469 c 1.93357,-1.8945 3.87693,-3.30075 5.83008,-4.21875 1.9531,-0.91794 3.99411,-1.37692 6.12304,-1.37696 3.02731,4e-5 5.3613,0.79105 7.00196,2.37305 1.64058,1.58206 2.46089,3.80862 2.46093,6.67969 -4e-5,0.62502 -0.0489,1.31838 -0.14648,2.08008 -0.0782,0.76174 -0.20512,1.59181 -0.38086,2.49023"
           style="font-size:60px;font-style:italic;font-variant:normal;font-weight:bold;font-stretch:normal;fill:#82fff9;stroke:#000000;font-family:Sans;-inkscape-font-specification:'micro.pcf Bold Italic'"
           id="path3862" />
      </g>
    </g>
  </g>
</svg>
